<svg width="117" height="60" viewBox="0 0 117 60" fill="none" xmlns="http://www.w3.org/2000/svg">
<rect x="11" y="3" width="20" height="20" fill="#141C25"/>
<path d="M21.2598 6.39307L16.3174 20H14.2974L19.9883 5.07031H21.2905L21.2598 6.39307ZM25.4023 20L20.4497 6.39307L20.4189 5.07031H21.7212L27.4326 20H25.4023ZM25.146 14.4731V16.0933H16.7583V14.4731H25.146Z" fill="#F2F2F2"/>
<rect x="22" y="27" width="30" height="30" fill="#141C25"/>
<path d="M37.7017 30.9609V53H34.8257V30.9609H37.7017ZM44.7856 30.9609V33.3525H27.7568V30.9609H44.7856Z" fill="white"/>
<path d="M68.3125 41.6523V43.7988H57.5391V41.6523H68.3125ZM57.9492 33.0938V53H55.3105V33.0938H57.9492ZM70.6094 33.0938V53H67.9844V33.0938H70.6094ZM82.9141 34.8574L76.3242 53H73.6309L81.2188 33.0938H82.9551L82.9141 34.8574ZM88.4375 53L81.834 34.8574L81.793 33.0938H83.5293L91.1445 53H88.4375ZM88.0957 45.6309V47.791H76.9121V45.6309H88.0957ZM99.3887 33.0938V53H96.791V33.0938H99.3887ZM105.787 33.0938V35.2539H90.4062V33.0938H105.787Z" fill="#141C25"/>
<path d="M38.0547 13.0171H34.271L34.2505 11.4277H37.6855C38.2529 11.4277 38.7485 11.332 39.1724 11.1406C39.5962 10.9492 39.9243 10.6758 40.1567 10.3203C40.396 9.95801 40.5156 9.52734 40.5156 9.02832C40.5156 8.48145 40.4097 8.03711 40.1978 7.69531C39.9927 7.34668 39.6748 7.09375 39.2441 6.93652C38.8203 6.77246 38.2803 6.69043 37.624 6.69043H34.7119V20H32.7329V5.07031H37.624C38.3896 5.07031 39.0732 5.14893 39.6748 5.30615C40.2764 5.45654 40.7856 5.6958 41.2026 6.02393C41.6265 6.34521 41.9478 6.75537 42.1665 7.25439C42.3853 7.75342 42.4946 8.35156 42.4946 9.04883C42.4946 9.66406 42.3374 10.2212 42.0229 10.7202C41.7085 11.2124 41.271 11.6157 40.7104 11.9302C40.1567 12.2446 39.5073 12.4463 38.7622 12.5352L38.0547 13.0171ZM37.9624 20H33.4917L34.6094 18.3901H37.9624C38.5913 18.3901 39.1245 18.2808 39.562 18.062C40.0063 17.8433 40.3447 17.5356 40.5771 17.1392C40.8096 16.7358 40.9258 16.2607 40.9258 15.7139C40.9258 15.1602 40.8267 14.6816 40.6284 14.2783C40.4302 13.875 40.1191 13.564 39.6953 13.3452C39.2715 13.1265 38.7246 13.0171 38.0547 13.0171H35.2349L35.2554 11.4277H39.1108L39.5312 12.002C40.249 12.0635 40.8574 12.2686 41.3564 12.6172C41.8555 12.959 42.2349 13.3965 42.4946 13.9297C42.7612 14.4629 42.8945 15.0508 42.8945 15.6934C42.8945 16.623 42.6895 17.4092 42.2793 18.0518C41.876 18.6875 41.3052 19.1729 40.5669 19.5078C39.8286 19.8359 38.9604 20 37.9624 20ZM57.3115 12.0635V13.0068C57.3115 14.1279 57.1714 15.1328 56.8911 16.0215C56.6108 16.9102 56.2075 17.6655 55.6812 18.2876C55.1548 18.9097 54.5225 19.3848 53.7842 19.7129C53.0527 20.041 52.2324 20.2051 51.3232 20.2051C50.4414 20.2051 49.6313 20.041 48.8931 19.7129C48.1616 19.3848 47.5259 18.9097 46.9858 18.2876C46.4526 17.6655 46.0391 16.9102 45.7451 16.0215C45.4512 15.1328 45.3042 14.1279 45.3042 13.0068V12.0635C45.3042 10.9424 45.4478 9.94092 45.7349 9.05908C46.0288 8.17041 46.4424 7.41504 46.9756 6.79297C47.5088 6.16406 48.1411 5.68555 48.8726 5.35742C49.6108 5.0293 50.4209 4.86523 51.3027 4.86523C52.2119 4.86523 53.0322 5.0293 53.7637 5.35742C54.502 5.68555 55.1343 6.16406 55.6606 6.79297C56.1938 7.41504 56.6006 8.17041 56.8809 9.05908C57.168 9.94092 57.3115 10.9424 57.3115 12.0635ZM55.353 13.0068V12.043C55.353 11.1543 55.2607 10.3682 55.0762 9.68457C54.8984 9.00098 54.6353 8.42676 54.2866 7.96191C53.938 7.49707 53.5107 7.14502 53.0049 6.90576C52.5059 6.6665 51.9385 6.54688 51.3027 6.54688C50.6875 6.54688 50.1304 6.6665 49.6313 6.90576C49.1392 7.14502 48.7153 7.49707 48.3599 7.96191C48.0112 8.42676 47.7412 9.00098 47.5498 9.68457C47.3584 10.3682 47.2627 11.1543 47.2627 12.043V13.0068C47.2627 13.9023 47.3584 14.6953 47.5498 15.3857C47.7412 16.0693 48.0146 16.647 48.3701 17.1187C48.7324 17.5835 49.1597 17.9355 49.6519 18.1748C50.1509 18.4141 50.708 18.5337 51.3232 18.5337C51.9658 18.5337 52.5366 18.4141 53.0356 18.1748C53.5347 17.9355 53.9551 17.5835 54.2969 17.1187C54.6455 16.647 54.9087 16.0693 55.0864 15.3857C55.2642 14.6953 55.353 13.9023 55.353 13.0068ZM68.8164 5.07031H70.7852V15.1704C70.7852 16.2915 70.5356 17.2246 70.0366 17.9697C69.5376 18.7148 68.8745 19.2754 68.0474 19.6514C67.2271 20.0205 66.335 20.2051 65.3711 20.2051C64.3594 20.2051 63.4434 20.0205 62.623 19.6514C61.8096 19.2754 61.1636 18.7148 60.6851 17.9697C60.2134 17.2246 59.9775 16.2915 59.9775 15.1704V5.07031H61.936V15.1704C61.936 15.9497 62.0796 16.5923 62.3667 17.0981C62.6538 17.604 63.0537 17.98 63.5664 18.2261C64.0859 18.4722 64.6875 18.5952 65.3711 18.5952C66.0615 18.5952 66.6631 18.4722 67.1758 18.2261C67.6953 17.98 68.0986 17.604 68.3857 17.0981C68.6729 16.5923 68.8164 15.9497 68.8164 15.1704V5.07031ZM79.4087 5.07031V20H77.4604V5.07031H79.4087ZM84.2075 5.07031V6.69043H72.6719V5.07031H84.2075Z" fill="#141C25"/>
</svg>
